<?xml version="1.0" encoding="UTF-8" standalone="no"?>
<!-- Created with Inkscape (http://www.inkscape.org/) -->

<svg
   viewBox="0 0 1176.7664 210.6246"
   version="1.1"
   id="svg1"
   xml:space="preserve"
   xmlns:xlink="http://www.w3.org/1999/xlink"
   xmlns="http://www.w3.org/2000/svg"
   xmlns:svg="http://www.w3.org/2000/svg"><defs
     id="defs1"><linearGradient
       id="linearGradient3"><stop
         style="stop-color:#000000;stop-opacity:1;"
         offset="0"
         id="stop3" /><stop
         style="stop-color:#000000;stop-opacity:0;"
         offset="1"
         id="stop4" /></linearGradient><radialGradient
       xlink:href="#linearGradient3"
       id="radialGradient4"
       cx="81.629761"
       cy="87.943924"
       fx="81.629761"
       fy="87.943924"
       r="74.998024"
       gradientTransform="matrix(1.2906073,0,0,1.3956407,-7.0436158,-16.60924)"
       gradientUnits="userSpaceOnUse" /></defs><g
     id="layer1"
     transform="translate(-0.87164493,-0.81328556)"><path
       style="fill:#203e76;fill-opacity:1;stroke:url(#radialGradient4);stroke-width:1.29061;paint-order:stroke fill markers"
       d="m 138.19726,209.88161 c -0.83786,-0.90409 -1.51811,-2.73705 -1.52166,-4.10017 -0.004,-1.36898 -1.09467,-6.09161 -1.80325,-7.80504 -1.30421,-3.15374 -3.42249,-6.36872 -6.00477,-9.11372 -2.37855,-2.52841 -4.3885,-4.09082 -11.99933,-9.32751 -1.59639,-1.0984 -4.24352,-3.12242 -5.88251,-4.49781 -1.63898,-1.3754 -3.04057,-2.50072 -3.11464,-2.50072 -0.0741,0 -0.23995,0.80674 -0.36865,1.79274 -0.12867,0.98601 -0.299,2.25372 -0.37847,2.81715 -0.57912,4.10648 -0.8414,7.27983 -0.8414,10.18041 v 3.36887 l 4.01231,4.93858 c 5.34399,6.57768 6.23189,7.89489 6.23189,9.24513 0,1.68227 -1.59306,3.30692 -3.24263,3.30692 -1.49243,0 -1.25645,0.23537 -8.0244,-8.00414 -4.43166,-5.39521 -16.828704,-19.79834 -24.089093,-27.98714 -10.314624,-11.63358 -18.393607,-17.15601 -28.310989,-19.35211 -3.399329,-0.75275 -10.609753,-0.88229 -14.116547,-0.25361 -7.203701,1.29144 -13.591476,4.89679 -18.856995,10.64318 -2.065043,2.25363 -4.593914,5.54782 -4.258929,5.54782 0.09643,0 0.998429,-0.46452 2.004425,-1.03227 7.710173,-4.35136 20.209592,-5.36105 29.880914,-2.41377 2.944383,0.89728 7.413136,3.0028 8.451376,3.98199 0.948178,0.89424 1.146533,1.32997 1.146533,2.51853 0,1.13319 -0.21114,1.64835 -0.998152,2.43536 -0.548984,0.54898 -1.325134,0.99814 -1.724777,0.99814 -0.399644,0 -2.140173,-0.59902 -3.86784,-1.33117 -6.62544,-2.80772 -10.567678,-3.60642 -16.651259,-3.37361 -5.117152,0.19584 -8.801037,1.08117 -12.742801,3.06242 -5.970824,3.00111 -10.31333,7.43725 -12.8798486,13.15753 -0.5708059,1.27222 -1.2735868,2.57364 -1.5617342,2.89204 -1.3577071,1.50025 -4.0804368,0.87011 -4.9117015,-1.13673 -0.3996636,-0.96487 -0.3604911,-1.57862 0.3116004,-4.8821 C 5.2740642,167.97657 14.05559,156.0371 27.215796,149.4872 l 3.430479,-1.70736 -2.902522,-1.47183 c -5.433602,-2.75531 -7.740363,-4.96756 -7.349671,-7.04859 0.246513,-1.31306 1.370325,-2.48491 2.653273,-2.7667 l 1.022881,-0.22466 -1.321869,-0.59262 c -1.567878,-0.7029 -2.095676,-1.28053 -2.5191,-2.75692 -0.223089,-0.77787 -0.179659,-1.42143 0.149011,-2.20804 0.729368,-1.74563 1.702724,-2.22387 4.526124,-2.22387 5.026017,0 8.106571,-1.99873 10.442456,-6.77526 l 1.445934,-2.95672 0.201384,-18.781036 C 37.125312,87.743942 37.34126,80.299203 37.613245,78.631531 38.562263,72.812596 42.897498,62.377804 46.936538,56.19062 55.491926,43.08507 66.596977,34.211428 78.281774,31.14376 c 4.814843,-1.264061 7.923271,-1.391929 30.561856,-1.257184 24.93999,0.148441 24.5482,0.109895 30.44852,2.995827 4.48313,2.192769 6.86311,4.331985 8.47862,7.620898 2.04247,4.158169 1.95334,8.42933 -0.26347,12.624475 -1.09104,2.064752 -3.55722,4.545609 -5.78,5.814405 -0.71068,0.405677 -1.29333,0.861042 -1.29477,1.01194 -0.003,0.243099 2.14257,6.008512 6.46398,17.374878 0.76299,2.006856 1.38727,3.942612 1.38727,4.301671 0,0.35906 -0.9933,1.816969 -2.20732,3.239799 l -2.20731,2.586958 3.36919,9.160614 c 1.85305,5.038329 4.07565,11.050209 4.9391,13.359719 1.86345,4.98426 1.93571,5.90256 0.57175,7.2665 -0.97822,0.97822 -1.07072,0.99815 -4.63397,0.99815 h -3.63584 l 0.11461,13.7443 0.1146,13.74429 0.9077,2.56104 c 0.49923,1.40859 1.98005,4.78916 3.2907,7.51242 2.97627,6.18401 4.27265,9.85462 5.21443,14.76432 0.66406,3.46186 0.7183,4.57919 0.54316,11.18764 -0.21777,8.21725 -0.68166,10.96513 -2.75911,16.34434 -3.45964,8.95815 -10.62059,15.11232 -13.70809,11.78085 z m 6.88318,-13.18942 c 1.70508,-4.03672 1.35513,-8.39017 -1.08168,-13.4565 -1.60499,-3.33692 -5.40682,-7.29313 -11.45022,-11.91521 -8.45361,-6.46545 -12.67471,-11.76791 -15.07004,-18.93076 -0.99044,-2.96173 -1.08423,-3.61538 -1.07806,-7.5124 0.008,-5.15923 0.82011,-8.8902 2.81285,-12.92564 2.92421,-5.92169 7.32393,-10.37301 12.85052,-13.00118 0.93904,-0.44657 1.75428,-0.84831 1.81163,-0.89275 0.0573,-0.0444 -0.30542,-0.52049 -0.80616,-1.05786 -1.72492,-1.85109 -1.89123,-3.04177 -0.63365,-4.53633 l 0.88404,-1.05062 h 6.11616 c 3.36389,0 6.11616,-0.0556 6.11616,-0.12377 0,-0.068 -0.47312,-1.25896 -1.05139,-2.64641 -0.57826,-1.38746 -2.04311,-5.21174 -3.25523,-8.49843 -1.21212,-3.286675 -2.76891,-7.320326 -3.45955,-8.963669 l -1.25571,-2.987885 h -8.29908 c -8.02738,0 -8.33793,-0.02517 -9.48525,-0.768311 -1.34076,-0.868476 -1.47009,-1.285665 -0.57235,-1.846304 0.34221,-0.213725 1.637,-1.249502 2.8773,-2.301721 l 2.25509,-1.913132 h 8.94005 c 7.01343,0 8.90406,-0.09202 8.77309,-0.426842 -0.28932,-0.739647 -3.63226,-9.479382 -5.19187,-13.57355 -0.82275,-2.159818 -1.59385,-4.272684 -1.71357,-4.695255 -0.11964,-0.422583 -0.39936,-0.762981 -0.62146,-0.756463 -0.22212,0.0065 -3.69137,0.676768 -7.70947,1.489438 l -7.30564,1.477578 -0.96501,2.646932 c -2.53945,6.965394 -6.67164,12.197155 -11.99768,15.190254 -2.33823,1.314019 -2.09038,-0.554703 -2.11574,15.952874 l -0.0185,12.012136 -0.9792,1.02443 c -1.60061,1.67456 -4.040953,2.54056 -7.642999,2.71226 l -3.158633,0.15057 v 11.71777 c 0,12.95425 0.140018,14.22417 2.161639,19.60633 0.627816,1.67144 1.895192,4.27666 2.816376,5.78937 1.765047,2.89842 4.127637,5.83627 3.727857,4.63553 -1.421671,-4.26995 -1.64705,-5.89996 -1.67614,-12.1223 -0.03188,-6.83449 0.01833,-7.31053 1.326422,-12.55583 0.978678,-3.92441 2.028498,-6.88114 3.427078,-9.65202 1.42922,-2.83158 5.57563,-8.77963 6.65721,-9.54978 1.93152,-1.37537 4.81973,-0.4045 5.39443,1.81333 0.41832,1.61433 0.16538,2.34403 -1.51627,4.37431 -3.42725,4.13775 -6.40323,10.23571 -7.43905,15.24299 -0.97741,4.72499 -1.32407,9.6854 -0.90314,12.9234 0.59723,4.59425 1.9153,9.13523 3.79201,13.06419 3.0528,6.39112 6.23373,10.11047 12.3125,14.3966 9.13905,6.44393 12.94672,9.78251 15.56956,13.65138 1.91116,2.81911 4.07451,7.31117 4.88775,10.14908 l 0.80449,2.80739 0.6193,-1.01834 c 0.3406,-0.56009 1.02425,-1.97708 1.51919,-3.14888 z M 99.62478,182.44086 c -0.27108,-0.43862 0.71435,-7.57155 1.53025,-11.07658 l 0.63059,-2.70897 -3.263122,-3.43754 C 91.242595,157.5488 87.054071,150.23046 85.415167,142.31626 84.8608,139.63928 84.776356,137.54783 84.760262,126.0963 l -0.01846,-13.14672 -1.661889,-0.77879 c -3.247697,-1.52192 -7.409015,-6.87896 -8.732894,-11.24224 -1.095003,-3.608896 -0.363526,-9.569462 1.557195,-12.688925 0.38886,-0.631559 0.622756,-1.232556 0.519779,-1.335546 -0.102991,-0.102991 -1.254316,0.0039 -2.5585,0.236517 -3.149056,0.562769 -9.147824,3.528959 -11.632929,5.752094 -3.26219,2.918309 -4.363675,3.140448 -6.338216,1.278218 -1.160072,-1.0941 -1.249051,-1.309825 -1.075116,-2.606614 0.14303,-1.066364 0.552754,-1.783993 1.667275,-2.920192 2.178994,-2.221381 6.604218,-5.065389 10.234571,-6.577555 5.371017,-2.237203 7.275644,-2.505998 19.414606,-2.739869 9.906908,-0.190855 10.89883,-0.264665 12.559803,-0.934645 2.771683,-1.117988 4.948993,-2.658767 7.342283,-5.195778 2.10632,-2.232815 4.61102,-6.020141 4.23199,-6.399167 -0.10105,-0.101054 -0.9703,-0.0151 -1.93156,0.190997 -0.96126,0.206162 -2.41799,0.374831 -3.23721,0.374831 -1.24401,0 -1.63514,-0.173134 -2.3735,-1.050618 -1.6903,-2.008818 -0.87011,-4.955842 1.59698,-5.738157 0.60745,-0.192623 4.17771,-0.904547 7.93392,-1.582052 3.7562,-0.677504 8.51975,-1.596313 10.58567,-2.041792 2.06591,-0.445492 5.44257,-1.142717 7.50368,-1.5494 8.04689,-1.587757 11.65454,-4.029211 12.05103,-8.155464 0.22544,-2.346208 -0.36167,-3.766276 -2.39226,-5.786244 -2.92065,-2.905385 -7.38133,-3.996523 -12.89404,-3.154039 -8.32235,1.271869 -16.14186,5.836657 -26.99328,15.757852 -6.519344,5.960463 -11.428143,9.73456 -17.482498,13.441301 -7.271642,4.452001 -14.43641,7.574406 -22.424455,9.772555 -4.965544,1.366418 -7.378501,1.648377 -8.584256,1.003073 -1.033065,-0.552883 -1.766133,-2.266797 -1.503378,-3.514904 0.273476,-1.299035 1.744123,-2.962963 2.618789,-2.962963 1.184769,0 11.177456,-2.731274 13.790755,-3.769387 9.978743,-3.963984 20.797594,-11.22556 31.235845,-20.965425 2.941418,-2.744618 9.687058,-8.063992 11.639878,-9.178796 0.71865,-0.410256 1.30781,-0.861167 1.30925,-1.002024 10e-4,-0.140858 -5.66592,-0.256106 -12.594146,-0.256106 -13.651076,0 -15.805539,0.202488 -20.645497,1.940365 -6.279488,2.254771 -11.103649,5.423264 -16.468662,10.816544 -7.183051,7.220909 -12.871821,16.872922 -15.92802,27.02471 -0.68097,2.261983 -0.732731,3.4353 -0.964099,21.854292 -0.22783,18.137213 -0.292961,19.653893 -0.955495,22.250233 -0.391049,1.53246 -1.192976,3.68375 -1.782063,4.78063 -1.304597,2.4292 -3.576589,5.44609 -4.314677,5.72933 -0.298174,0.11448 -0.454053,0.29612 -0.3464,0.40377 0.332045,0.33204 6.672974,-2.84255 9.071089,-4.54145 1.248652,-0.8846 3.668492,-3.01094 5.37742,-4.72523 4.936184,-4.95163 8.140887,-9.96029 11.111357,-17.366 1.835067,-4.57501 2.474485,-5.338813 4.460846,-5.32854 1.552497,0.0077 2.649036,0.64937 3.30571,1.93343 0.54785,1.07127 0.472891,2.08781 -0.270679,3.67084 -6.659569,14.17798 -8.473693,17.02813 -14.636779,22.9957 -4.244912,4.11025 -8.165431,6.75083 -13.053378,8.79184 -2.512727,1.04921 -7.813203,2.20554 -10.19184,2.22343 l -1.588983,0.0116 1.707365,0.79519 c 4.382884,2.04129 13.066498,2.03485 19.253214,-0.0143 2.279806,-0.75509 6.60348,-2.97642 9.39952,-4.82906 4.626963,-3.06581 11.216597,-10.53001 13.781395,-15.61042 0.949732,-1.88126 1.812438,-2.56998 3.288713,-2.62547 2.343975,-0.0881 4.092593,2.23277 3.490279,4.63256 -0.12506,0.49811 -1.638181,3.01621 -3.3626,5.5958 -5.051811,7.55707 -10.198921,12.26243 -18.464698,16.87995 -2.028527,1.13319 -3.636474,2.11212 -3.573215,2.17537 0.06327,0.0632 1.492471,0.59889 3.176025,1.19028 6.928223,2.43372 13.440008,6.59726 19.758757,12.63344 3.461757,3.30695 11.037571,11.63696 17.108097,18.81124 1.878092,2.21958 3.539039,4.03886 3.690982,4.04285 0.151943,0.004 0.181704,-0.14574 0.06621,-0.33273 z m 48.09595,-7.59927 c -0.65662,-6.08566 -1.07824,-7.46168 -4.76691,-15.55762 -1.56681,-3.43885 -3.35085,-7.66458 -3.96455,-9.39051 l -1.11581,-3.13804 -0.11241,-11.17246 -0.11241,-11.17245 -1.69329,0.64341 c -5.3334,2.02652 -9.63631,6.86637 -11.74118,13.20631 -0.72801,2.19278 -0.88928,3.30487 -0.87233,6.01515 0.0252,4.02489 0.58643,6.35931 2.42863,10.10145 1.61206,3.27465 5.33049,7.29504 9.36659,10.12724 5.73615,4.02514 9.44164,7.34857 11.45321,10.27231 0.57386,0.83405 1.0982,1.51646 1.1652,1.51646 0.067,0 0.0514,-0.65306 -0.0347,-1.45125 z M 96.379857,97.07107 V 86.485406 l -4.183039,0.0039 c -3.733456,0.0026 -4.366563,0.09266 -5.890422,0.834997 -2.03117,0.989379 -2.477153,1.345497 -3.654341,2.917869 -3.500579,4.675729 -1.95207,12.068798 3.228738,15.415058 2.292002,1.48039 4.079764,1.95099 7.511179,1.97723 l 2.987885,0.0229 z M 176.2035,207.51532 c -2.12285,-1.15185 -1.96776,6.09873 -1.96776,-91.9987 0,-74.265077 -0.0783,-89.680879 -0.46001,-90.592717 -0.25301,-0.60435 -1.09859,-1.675056 -1.87909,-2.379345 -1.34542,-1.214057 -1.53915,-1.280523 -3.73242,-1.280523 -2.58481,0 -3.51449,-0.445887 -4.36703,-2.094492 -0.6694,-1.294486 -0.3922,-2.678321 0.75178,-3.753038 0.78608,-0.738486 1.15944,-0.811197 4.16533,-0.811197 2.81207,0 3.55514,0.12413 5.00922,0.836786 3.63354,1.780807 6.51392,5.747902 7.30984,10.067702 0.26394,1.432561 0.37332,27.980486 0.37332,90.614624 v 88.58845 l -0.74671,1.32857 c -0.54327,0.96662 -1.07819,1.42066 -1.96346,1.66659 -1.48786,0.41332 -1.35752,0.4234 -2.49301,-0.19271 z M 190.09756,58.781436 c -1.69125,-0.821652 -1.67859,-0.692643 -1.87362,-19.077847 -0.17618,-16.60743 -0.21072,-17.327421 -0.93507,-19.492028 -1.81824,-5.433517 -6.4327,-9.765184 -12.16589,-11.4202985 -4.41438,-1.2743895 -10.36315,-0.062736 -13.90126,2.8314295 -3.90305,3.192689 -5.38457,6.253573 -5.74088,11.860917 -0.13128,2.065913 -0.42254,4.094066 -0.64725,4.507008 -0.59569,1.094641 -1.77176,1.810247 -2.97506,1.810247 -1.15957,0 -1.8201,-0.419889 -2.67111,-1.697977 -0.73253,-1.100144 -0.76043,-6.808816 -0.048,-9.830249 0.98771,-4.189182 3.86864,-8.7884717 7.20987,-11.5102128 2.71932,-2.2151494 4.28307,-3.0621801 7.86342,-4.2593655 2.6482,-0.8854973 3.64037,-1.0444692 6.51873,-1.0444692 11.62347,0 21.43264,7.9982278 23.84449,19.4424005 0.59457,2.821222 0.73528,35.462351 0.15751,36.541892 -0.82506,1.54163 -2.95306,2.156076 -4.63582,1.338553 z"
       id="path1" /><text
       xml:space="preserve"
       style="font-style:normal;font-weight:normal;font-size:227.439px;line-height:1.15;font-family:sans-serif;letter-spacing:-13.2292px;word-spacing:0px;fill:#000000;fill-opacity:1;stroke:none;stroke-width:0.341157"
       x="214.43541"
       y="137.39656"
       id="text1"><tspan
         id="tspan1"
         x="214.43541"
         y="137.39656"
         style="font-style:normal;font-variant:normal;font-weight:normal;font-stretch:normal;font-size:227.439px;line-height:1.15;font-family:'Libre Barcode 39 Text';-inkscape-font-specification:'Libre Barcode 39 Text';letter-spacing:-13.2292px;word-spacing:0px;stroke-width:0.341157"
         rotate="0 0 0 0 0 0 0 0 0 0 0"
         dy="0"
         dx="-2.6175132"><tspan
           style="font-style:normal;font-variant:normal;font-weight:normal;font-stretch:normal;line-height:1.15;font-family:'Libre Barcode 39 Text';-inkscape-font-specification:'Libre Barcode 39 Text';letter-spacing:-13.2292px;fill:#2b0000;fill-opacity:1;stroke-width:0.341157"
           id="tspan2">dns</tspan><tspan
           style="font-style:normal;font-variant:normal;font-weight:normal;font-stretch:normal;line-height:1.15;font-family:'Libre Barcode 39 Text';-inkscape-font-specification:'Libre Barcode 39 Text';letter-spacing:-13.2292px;fill:#203e76;fill-opacity:1;stroke-width:0.341157"
           id="tspan3">monster</tspan></tspan></text></g></svg>
